<?xml version="1.0" encoding="UTF-8"?><svg id="_레이어_1" xmlns="http://www.w3.org/2000/svg" viewBox="0 0 45.35 45.35"><path d="M44.03,17.21c-.85-.85-1.99-1.32-3.2-1.32h-.21l-.45-1.1.15-.15c.85-.85,1.32-1.99,1.32-3.19s-.47-2.34-1.32-3.2l-3.21-3.21c-.85-.85-1.99-1.32-3.2-1.32s-2.34.47-3.2,1.32l-.15.15-1.1-.45v-.21c0-1.21-.47-2.34-1.32-3.2C27.29.47,26.15,0,24.95,0h-4.54C19.22,0,18.05.48,17.21,1.32c-.85.85-1.32,1.99-1.32,3.2v.21l-1.1.45-.15-.15c-.85-.85-1.99-1.32-3.2-1.32s-2.34.47-3.2,1.32l-3.21,3.21c-.85.85-1.32,1.99-1.32,3.2s.47,2.34,1.32,3.2l.15.15-.45,1.1h-.21c-1.19,0-2.36.48-3.2,1.32C.47,18.06,0,19.2,0,20.41v4.54C0,26.14.48,27.3,1.32,28.14c.84.84,2.01,1.33,3.2,1.33h.21l.45,1.1-.15.15c-.85.85-1.32,1.99-1.32,3.2s.47,2.34,1.32,3.2l3.21,3.21c.85.85,1.99,1.32,3.2,1.32s2.34-.47,3.19-1.32l.15-.15,1.1.45v.21c0,1.19.48,2.36,1.32,3.2.84.84,2.01,1.32,3.2,1.32h4.54c1.21,0,2.34-.47,3.2-1.32.84-.84,1.32-2.01,1.32-3.2v-.21l1.09-.45.15.15c.85.85,1.99,1.32,3.2,1.32s2.34-.47,3.2-1.32l3.21-3.21c.85-.85,1.32-1.99,1.32-3.19s-.47-2.34-1.32-3.2l-.15-.15.45-1.1h.21c1.21,0,2.34-.47,3.19-1.32.84-.84,1.33-2.01,1.33-3.2v-4.54c0-1.21-.47-2.34-1.32-3.2ZM40.85,24.95l-1.74.02c-.91,0-1.73.55-2.08,1.39l-1.6,3.87c-.35.84-.16,1.81.49,2.45l1.22,1.24-3.23,3.21-1.22-1.22c-.64-.64-1.61-.84-2.45-.49l-3.87,1.61c-.84.35-1.39,1.17-1.39,2.08l-.02,1.74-4.56-.02v-1.72c0-.91-.55-1.73-1.39-2.08l-3.87-1.6c-.28-.12-.57-.17-.86-.17-.59,0-1.16.23-1.59.66l-1.24,1.22-3.21-3.24,1.21-1.22c.64-.64.83-1.61.49-2.45l-1.6-3.87c-.35-.84-1.17-1.39-2.08-1.39l-1.74-.02.02-4.56h1.72c.91,0,1.73-.55,2.08-1.39l1.61-3.87c.35-.84.16-1.81-.49-2.45l-1.22-1.24,3.24-3.21,1.22,1.21c.64.64,1.61.83,2.45.49l3.87-1.6c.84-.35,1.39-1.17,1.39-2.08l.02-1.74,4.56.02v1.72c0,.91.55,1.73,1.39,2.08l3.87,1.6c.84.35,1.81.16,2.45-.49l1.24-1.22,3.21,3.23-1.21,1.22c-.64.64-.83,1.61-.49,2.45l1.6,3.87c.35.84,1.17,1.39,2.08,1.39l1.74.02v4.54Z"/><path d="M22.68,13.62c-5,0-9.06,4.06-9.06,9.06s4.06,9.06,9.06,9.06,9.06-4.06,9.06-9.06-4.06-9.06-9.06-9.06ZM22.68,27.23c-2.51,0-4.56-2.04-4.56-4.56s2.04-4.56,4.56-4.56,4.56,2.04,4.56,4.56-2.04,4.56-4.56,4.56Z"/></svg>