<?xml version="1.0" encoding="UTF-8"?><svg id="_레이어_1" xmlns="http://www.w3.org/2000/svg" viewBox="0 0 45.35 45.35"><defs><style>.cls-1{fill:none;}</style></defs><rect class="cls-1" width="45.35" height="45.35"/><path d="M26.95,41.1c-.35,0-.69-.08-1.01-.24-.76-.38-1.24-1.16-1.24-2.01V14.95c0-.85.48-1.63,1.24-2.01.76-.38,1.67-.31,2.35.2l16.15,11.95c.57.42.91,1.1.91,1.81s-.34,1.39-.91,1.81l-16.15,11.95c-.39.29-.86.44-1.34.44ZM29.2,19.42v14.96l10.11-7.48-10.11-7.48Z"/><path d="M17.84,41.1H2.25c-1.24,0-2.25-1.01-2.25-2.25s1.01-2.25,2.25-2.25h15.59c1.24,0,2.25,1.01,2.25,2.25s-1.01,2.25-2.25,2.25ZM17.84,24.93H2.25c-1.24,0-2.25-1.01-2.25-2.25s1.01-2.25,2.25-2.25h15.59c1.24,0,2.25,1.01,2.25,2.25s-1.01,2.25-2.25,2.25ZM38.59,8.76H2.25c-1.24,0-2.25-1.01-2.25-2.25s1.01-2.25,2.25-2.25h36.34c1.24,0,2.25,1.01,2.25,2.25s-1.01,2.25-2.25,2.25Z"/></svg>