<?xml version="1.0" encoding="UTF-8"?><svg id="_레이어_1" xmlns="http://www.w3.org/2000/svg" viewBox="0 0 45.35 45.35"><path d="M33.98,45.35c-.81,0-1.63-.23-2.36-.7l-8.94-5.64-8.94,5.64c-1.55.97-3.43.92-4.92-.13-1.58-1.12-2.31-3.09-1.86-5.03l2.36-10.24c.04-.15-.02-.29-.07-.34l-7.64-6.77c-1.44-1.27-1.97-3.3-1.35-5.17.6-1.8,2.11-3.02,3.93-3.17l10.23-.85s.02-.03.04-.08l4.02-10h0c.71-1.76,2.36-2.9,4.19-2.9h0c1.84,0,3.48,1.14,4.19,2.9l4.02,9.99c.03.07.06.09.06.09l10.21.84c1.83.15,3.34,1.36,3.93,3.17.62,1.86.09,3.89-1.35,5.17l-7.64,6.77c-.05.05-.11.18-.07.34l2.36,10.23c.45,1.93-.28,3.91-1.86,5.03-.78.55-1.67.83-2.55.83ZM11.44,40.86h0,0Z"/></svg>