<?xml version="1.0" encoding="UTF-8"?><svg id="_레이어_1" xmlns="http://www.w3.org/2000/svg" viewBox="0 0 45.35 45.35"><path d="M15.38,19.82H4.44c-2.45,0-4.44-1.99-4.44-4.44V4.44C0,1.99,1.99,0,4.44,0h10.94C17.83,0,19.82,1.99,19.82,4.44v10.94c0,2.45-1.99,4.44-4.44,4.44ZM4.5,15.32h10.82V4.5H4.5v10.82ZM15.38,4.5h0,0Z"/><path d="M40.91,19.82h-10.94c-2.45,0-4.44-1.99-4.44-4.44V4.44C25.53,1.99,27.52,0,29.97,0h10.94C43.36,0,45.35,1.99,45.35,4.44v10.94c0,2.45-1.99,4.44-4.44,4.44ZM30.04,15.38h0s0,0,0,0ZM30.04,15.32h10.82V4.5h-10.88l.06,10.82ZM40.91,4.5h0,0Z"/><path d="M15.38,45.35H4.44c-2.45,0-4.44-1.99-4.44-4.44v-10.94c0-2.45,1.99-4.44,4.44-4.44h10.94c2.45,0,4.44,1.99,4.44,4.44v10.94c0,2.45-1.99,4.44-4.44,4.44ZM4.5,40.85h10.82v-10.82H4.5v10.82ZM15.38,30.04h0,0Z"/><path d="M40.91,45.35h-10.94c-2.45,0-4.44-1.99-4.44-4.44v-10.94c0-2.45,1.99-4.44,4.44-4.44h10.94c2.45,0,4.44,1.99,4.44,4.44v10.94c0,2.45-1.99,4.44-4.44,4.44ZM30.04,40.91h0s0,0,0,0ZM30.04,40.85h10.82v-10.82h-10.88l.06,10.82ZM40.91,30.04h0,0Z"/></svg>