<?xml version="1.0" encoding="UTF-8"?><svg id="_레이어_1" xmlns="http://www.w3.org/2000/svg" viewBox="0 0 45.35 45.35"><path d="M37.5,7.86h0v-.11c0-2.07-.81-4.01-2.27-5.47C33.76.81,31.82,0,29.75,0H8.53c-2.28,0-4.42.9-6.02,2.51C.9,4.11,0,6.25,0,8.54v21.22c0,2.07.81,4.01,2.27,5.47,1.46,1.46,3.4,2.27,5.48,2.28h.11c0,4.33,3.52,7.86,7.85,7.86h21.8c4.33,0,7.85-3.52,7.85-7.85V15.7c0-4.33-3.52-7.85-7.85-7.85ZM7.76,32.99c-.87,0-1.68-.34-2.3-.96-.61-.61-.95-1.43-.96-2.29V8.54c0-1.08.42-2.09,1.19-2.85.76-.76,1.78-1.18,2.85-1.19h21.2c.87,0,1.68.34,2.3.96.61.61.95,1.43.96,2.25v.15H15.71c-4.33,0-7.85,3.52-7.85,7.85v17.29h-.1ZM40.85,37.51c0,1.84-1.5,3.35-3.35,3.35H15.71c-1.84,0-3.35-1.5-3.35-3.35V15.7c0-1.84,1.5-3.35,3.35-3.35h21.8c1.85,0,3.35,1.5,3.35,3.35v21.8Z"/></svg>