<svg id="그룹_277" data-name="그룹 277" xmlns="http://www.w3.org/2000/svg" xmlns:xlink="http://www.w3.org/1999/xlink" width="27" height="27" viewBox="0 0 27 27">
  <defs>
    <style>
      .cls-1 {
        fill: none;
      }

      .cls-2 {
        fill: #371c1d;
      }

      .cls-3 {
        clip-path: url(#clip-path);
      }
    </style>
    <clipPath id="clip-path">
      <rect id="사각형_104" data-name="사각형 104" class="cls-1" width="27" height="27"/>
    </clipPath>
  </defs>
  <path id="패스_70" data-name="패스 70" class="cls-2" d="M10.733,10.053l-.839,2.422h1.612l-.583-1.827Z"/>
  <g id="그룹_276" data-name="그룹 276">
    <g id="그룹_275" data-name="그룹 275" class="cls-3">
      <path id="패스_71" data-name="패스 71" class="cls-2" d="M13.5,1.1C6.044,1.1,0,5.875,0,11.77c0,3.836,2.561,7.2,6.4,9.08-.282,1.054-1.022,3.819-1.17,4.41-.183.735.268.725.565.528.233-.155,3.7-2.513,5.2-3.53a16.951,16.951,0,0,0,2.506.184c7.45,0,13.49-4.77,13.5-10.658v-.028C26.99,5.868,20.95,1.1,13.5,1.1M6.917,14.521c0,.648-1.444.639-1.444-.01,0-.018,0-.045,0-.066.006-.858,0-3.733,0-4.467V9.806H4.08a.576.576,0,0,1-.372-.124c-.414-.33-.292-1.209.371-1.209h0S7.332,8.5,8.306,8.5a.68.68,0,0,1,0,1.359c-.918,0-1.383,0-1.383,0Zm5.312.164a3.648,3.648,0,0,1-.26-.872c0-.052.008-.059.009-.059H9.436l-.278.972a.526.526,0,0,1-.073.12c-.387.488-1.483-.038-1.206-.676.292-.671,1-2.658,1.507-4.023.056-.15.109-.292.159-.424s.108-.284.154-.4c.053-.135.1-.241.135-.329l.032-.075a.806.806,0,0,1,.78-.417,1.047,1.047,0,0,1,.915.417h0c.139.3.634,1.621,1.107,2.9.362.974.711,1.923.879,2.369a.605.605,0,0,1,.034.133c.079.646-1.1,1.043-1.353.368m5.155.325c-.652,0-2.126.008-2.79.008a.528.528,0,0,1-.553-.53,1.068,1.068,0,0,1,0-.245s0-3.894-.007-5.1l0-.041.005-.023a.677.677,0,0,1,.745-.575l.037,0a.676.676,0,0,1,.646.379l0,.006A.7.7,0,0,1,15.518,9c0,.012,0,.025.006.037a.77.77,0,0,1,.015.1v0c0,.877,0,4.476,0,4.476l.54,0c.4,0,.938,0,1.3,0,.653,0,.656,1.389,0,1.389m4.488-.107h0l-.234-.32L20.04,12.4l-.419.335v1.886c0,.28-.357.42-.713.42a1.315,1.315,0,0,1-.262-.026.908.908,0,0,1-.229-.079.359.359,0,0,1-.223-.315v-.116c0-.055,0-.125,0-.208h0c0-.083,0-.178,0-.285,0-.375,0-.883.007-1.435v0c.008-1.5.016-3.315.007-3.629h0c-.008-.292.367-.444.734-.444.342,0,.676.133.684.405.005.225.008.507.008.788,0,.614-.008,1.225-.008,1.231s2.068-2.07,2.362-2.362c.266-.265,1.02.429,1,.807a.2.2,0,0,1-.059.14c-.52.517-1.839,1.943-1.841,1.945l1.946,2.562a.347.347,0,0,1,.071.2c.021.49-.913,1.113-1.237.685"/>
    </g>
  </g>
</svg>
