<?xml version="1.0" encoding="UTF-8"?><svg id="_레이어_1" xmlns="http://www.w3.org/2000/svg" viewBox="0 0 45.35 45.35"><path d="M32.92,37.72c1.24,0,2.25-1.03,2.25-2.28s-1.01-2.25-2.25-2.25h-.03c-1.24,0-2.25,1.03-2.25,2.28s1.03,2.25,2.28,2.25Z"/><path d="M32.92,27.51c1.24,0,2.25-1.03,2.25-2.28s-1.01-2.25-2.25-2.25h-.03c-1.24,0-2.25,1.03-2.25,2.28s1.03,2.25,2.28,2.25Z"/><path d="M22.7,27.51c1.24,0,2.25-1.03,2.25-2.28s-1.01-2.25-2.25-2.25h-.03c-1.24,0-2.25,1.03-2.25,2.28s1.03,2.25,2.28,2.25Z"/><path d="M22.7,37.72c1.24,0,2.25-1.03,2.25-2.28s-1.01-2.25-2.25-2.25h-.03c-1.24,0-2.25,1.03-2.25,2.28s1.03,2.25,2.28,2.25Z"/><path d="M12.49,37.72c1.24,0,2.25-1.03,2.25-2.28s-1.01-2.25-2.25-2.25h-.03c-1.24,0-2.25,1.03-2.25,2.28s1.03,2.25,2.28,2.25Z"/><path d="M12.49,27.51c1.24,0,2.25-1.03,2.25-2.28s-1.01-2.25-2.25-2.25h-.03c-1.24,0-2.25,1.03-2.25,2.28s1.03,2.25,2.28,2.25Z"/><path d="M40.55,5.11h-2.85v-2.85c0-1.24-1.01-2.25-2.25-2.25s-2.25,1.01-2.25,2.25v2.85h-8.26v-2.85c0-1.24-1.01-2.25-2.25-2.25s-2.25,1.01-2.25,2.25v2.85h-8.26v-2.85c0-1.24-1.01-2.25-2.25-2.25s-2.25,1.01-2.25,2.25v2.85h-2.85C2.16,5.11,0,7.26,0,9.91v30.64c0,2.65,2.16,4.81,4.81,4.81h35.74c2.65,0,4.81-2.16,4.81-4.81V9.91c0-2.65-2.16-4.81-4.81-4.81ZM40.85,40.55c0,.17-.14.3-.3.3H4.81c-.17,0-.3-.14-.3-.3v-20.73h36.35v20.73ZM40.85,15.32H4.5v-5.41c0-.17.14-.3.3-.3h2.85v.3c0,1.24,1.01,2.25,2.25,2.25s2.25-1.01,2.25-2.25v-.3h8.26v.3c0,1.24,1.01,2.25,2.25,2.25s2.25-1.01,2.25-2.25v-.3h8.26v.3c0,1.24,1.01,2.25,2.25,2.25s2.25-1.01,2.25-2.25v-.3h2.85c.17,0,.3.14.3.3v5.41Z"/></svg>